<svg class="diagram-root" style="background: rgb(245, 246, 246); --darkreader-inline-bgcolor: #252829; --darkreader-inline-bgimage: none;" xmlns="http://www.w3.org/2000/svg" xmlns:xlink="http://www.w3.org/1999/xlink" data-darkreader-inline-bgcolor="" data-darkreader-inline-bgimage=""><style>.diagram-root { font-family: "Helvetica Neue", sans-serif; font-size: 12px; } .t { overflow: visible; } .t-bg { y: 40; fill: #fff;   } .th { fill: #005aa0;   } .tht { fill: #fff; font-size: 14px;  } .tf { fill: #323c46; overflow: visible; } .tf.pk { fill: #005aa0; font-weight: bold; } .tf.fk { font-weight: bold; } .ty { fill: #adb1b5; font-weight: normal; text-anchor: end; } .r { fill: transparent; stroke: #c3c3c3; stroke-width: 1; } .l { stroke: 1; } .i { fill: #c2c7ce; stroke: #c2c7ce; } .i.ix { fill: #afb3b6; stroke: #000; } .fa { fill: transparent; overflow: visible; } .fa .bg.hover { fill: #f7f7f7; } .c { cy: 12; r: 4; stroke: #d2d2dc; fill: #d2d2dc; } .hr { fill: transparent; stroke: #323c46; stroke-opacity: 0.035; stroke-width: 13; } .dc { stroke: #fa5a3c; fill: #fa5a3c; } .x { stroke: white; stroke-width: 1; } .hl .th { fill: #1b9bff; } .hl .tht {  } .fhl .bg { fill: #e7f4ff; } .fhls .bg {  } .r.hl { stroke: #1b9bff; } .dim { opacity: 0.25; }</style><style class="darkreader darkreader--sync" media="screen"></style><g class="drawing-wrapper" transform="translate(-91.33333333333331, 149.9999999999999) scale(1,1)"><g class="rs"><path d="M 387.14 87.71 m -1, 0 a 1,1 0 1,0 2,0 a 1,1 0 1,0 -2,0 M 387.14 87.71 m -0.5, 0 a 0.5,0.5 0 1,0 1,0 a 0.5,0.5 0 1,0 -1,0  M387.14 87.71 L387.14 87.71 375.14 87.71 M 387.14 93.71 m -1, 0 a 1,1 0 1,0 2,0 a 1,1 0 1,0 -2,0 M 387.14 93.71 m -0.5, 0 a 0.5,0.5 0 1,0 1,0 a 0.5,0.5 0 1,0 -1,0  M387.14 93.71 L387.14 93.71 380.14 87.71 387.14 81.71 M 387.14 81.71 m -1, 0 a 1,1 0 1,0 2,0 a 1,1 0 1,0 -2,0 M 387.14 81.71 m -0.5, 0 a 0.5,0.5 0 1,0 1,0 a 0.5,0.5 0 1,0 -1,0  M375.14 87.71 Q 351.94 87.71, 328.74 99.85 T 282.33 112 M 270.33 112 m -1, 0 a 1,1 0 1,0 2,0 a 1,1 0 1,0 -2,0 M 270.33 112 m -0.5, 0 a 0.5,0.5 0 1,0 1,0 a 0.5,0.5 0 1,0 -1,0  M270.33 112 L270.33 112 282.33 112 M276.33 118 L276.33 118 276.33 106" id="h1537058300" class="r"></path><path d="M 653.33 113.67 m -1, 0 a 1,1 0 1,0 2,0 a 1,1 0 1,0 -2,0 M 653.33 113.67 m -0.5, 0 a 0.5,0.5 0 1,0 1,0 a 0.5,0.5 0 1,0 -1,0  M653.33 113.67 L653.33 113.67 641.33 113.67 M647.33 119.67 L647.33 119.67 647.33 107.67 M641.33 113.67 Q 623.04 113.67, 604.74 88.19 T 568.14 62.71 M 556.14 62.71 m -1, 0 a 1,1 0 1,0 2,0 a 1,1 0 1,0 -2,0 M 556.14 62.71 m -0.5, 0 a 0.5,0.5 0 1,0 1,0 a 0.5,0.5 0 1,0 -1,0  M556.14 62.71 L556.14 62.71 568.14 62.71 M562.14 68.71000000000001 L562.14 68.71000000000001 562.14 56.71" id="h3177548053" class="r"></path><path d="M 286 -26.33 m -1, 0 a 1,1 0 1,0 2,0 a 1,1 0 1,0 -2,0 M 286 -26.33 m -0.5, 0 a 0.5,0.5 0 1,0 1,0 a 0.5,0.5 0 1,0 -1,0  M286 -26.33 L286 -26.33 298 -26.33 M 286 -20.33 m -1, 0 a 1,1 0 1,0 2,0 a 1,1 0 1,0 -2,0 M 286 -20.33 m -0.5, 0 a 0.5,0.5 0 1,0 1,0 a 0.5,0.5 0 1,0 -1,0  M286 -20.33 L286 -20.33 293 -26.33 286 -32.33 M 286 -32.33 m -1, 0 a 1,1 0 1,0 2,0 a 1,1 0 1,0 -2,0 M 286 -32.33 m -0.5, 0 a 0.5,0.5 0 1,0 1,0 a 0.5,0.5 0 1,0 -1,0  M298 -26.33 Q 317.28 -26.33, 336.57 18.19 T 375.14 62.71 M 387.14 62.71 m -1, 0 a 1,1 0 1,0 2,0 a 1,1 0 1,0 -2,0 M 387.14 62.71 m -0.5, 0 a 0.5,0.5 0 1,0 1,0 a 0.5,0.5 0 1,0 -1,0  M387.14 62.71 L387.14 62.71 375.14 62.71 M381.14 68.71000000000001 L381.14 68.71000000000001 381.14 56.71" id="h1139284389" class="r"></path><path d="M 286 -1.3299999999999983 m -1, 0 a 1,1 0 1,0 2,0 a 1,1 0 1,0 -2,0 M 286 -1.3299999999999983 m -0.5, 0 a 0.5,0.5 0 1,0 1,0 a 0.5,0.5 0 1,0 -1,0  M286 -1.3299999999999983 L286 -1.3299999999999983 298 -1.3299999999999983 M 286 4.670000000000002 m -1, 0 a 1,1 0 1,0 2,0 a 1,1 0 1,0 -2,0 M 286 4.670000000000002 m -0.5, 0 a 0.5,0.5 0 1,0 1,0 a 0.5,0.5 0 1,0 -1,0  M286 4.670000000000002 L286 4.670000000000002 293 -1.3299999999999983 286 -7.329999999999998 M 286 -7.329999999999998 m -1, 0 a 1,1 0 1,0 2,0 a 1,1 0 1,0 -2,0 M 286 -7.329999999999998 m -0.5, 0 a 0.5,0.5 0 1,0 1,0 a 0.5,0.5 0 1,0 -1,0  M298 -1.3299999999999983 Q 316.34 -1.3299999999999983, 334.67 -32.16 T 371.33 -63 M 383.33 -63 m -1, 0 a 1,1 0 1,0 2,0 a 1,1 0 1,0 -2,0 M 383.33 -63 m -0.5, 0 a 0.5,0.5 0 1,0 1,0 a 0.5,0.5 0 1,0 -1,0  M383.33 -63 L383.33 -63 371.33 -63 M377.33 -57 L377.33 -57 377.33 -69" id="h1607168654" class="r"></path><path d="M 653.33 -24.67 m -1, 0 a 1,1 0 1,0 2,0 a 1,1 0 1,0 -2,0 M 653.33 -24.67 m -0.5, 0 a 0.5,0.5 0 1,0 1,0 a 0.5,0.5 0 1,0 -1,0  M653.33 -24.67 L653.33 -24.67 641.33 -24.67 M 653.33 -18.67 m -1, 0 a 1,1 0 1,0 2,0 a 1,1 0 1,0 -2,0 M 653.33 -18.67 m -0.5, 0 a 0.5,0.5 0 1,0 1,0 a 0.5,0.5 0 1,0 -1,0  M653.33 -18.67 L653.33 -18.67 646.33 -24.67 653.33 -30.67 M 653.33 -30.67 m -1, 0 a 1,1 0 1,0 2,0 a 1,1 0 1,0 -2,0 M 653.33 -30.67 m -0.5, 0 a 0.5,0.5 0 1,0 1,0 a 0.5,0.5 0 1,0 -1,0  M641.33 -24.67 Q 622.58 -24.67, 603.83 -43.83 T 566.33 -63 M 554.33 -63 m -1, 0 a 1,1 0 1,0 2,0 a 1,1 0 1,0 -2,0 M 554.33 -63 m -0.5, 0 a 0.5,0.5 0 1,0 1,0 a 0.5,0.5 0 1,0 -1,0  M554.33 -63 L554.33 -63 566.33 -63 M560.33 -57 L560.33 -57 560.33 -69" id="h1397587031" class="r"></path><path d="M 653.33 0.3299999999999983 m -1, 0 a 1,1 0 1,0 2,0 a 1,1 0 1,0 -2,0 M 653.33 0.3299999999999983 m -0.5, 0 a 0.5,0.5 0 1,0 1,0 a 0.5,0.5 0 1,0 -1,0  M653.33 0.3299999999999983 L653.33 0.3299999999999983 650.33 0.3299999999999983 M 647.33 0.3299999999999983 m -3, 0 a 3,3 0 1,0 6,0 a 3,3 0 1,0 -6,0 M644.33 0.3299999999999983 L644.33 0.3299999999999983 641.33 0.3299999999999983 M641.33 0.3299999999999983 Q 623.04 0.3299999999999983, 604.74 31.52 T 568.14 62.71 M 556.14 62.71 m -1, 0 a 1,1 0 1,0 2,0 a 1,1 0 1,0 -2,0 M 556.14 62.71 m -0.5, 0 a 0.5,0.5 0 1,0 1,0 a 0.5,0.5 0 1,0 -1,0  M556.14 62.71 L556.14 62.71 568.14 62.71 M562.14 68.71000000000001 L562.14 68.71000000000001 562.14 56.71" id="h2286254435" class="r"></path></g><g class="hrs"></g><g class="ts"><svg width="157" height="100" x="113.33" y="55" id="h311790747" class="t"><rect height="40" width="157" class="th"></rect><text x="13" y="25" class="tht">titles</text><rect height="60" width="157" class="t-bg" y="40"></rect><text x="13" y="61" class="tf pk">title_id<tspan x="144" class="ty">varchar(5)</tspan></text><path d="M7,14A2,2 0 0,1 5,12A2,2 0 0,1 7,10A2,2 0 0,1 9,12A2,2 0 0,1 7,14M12.65,10C11.83,7.67 9.61,6 7, 6A6, 6 0 0, 0 1, 12A6, 6 0 0, 0 7, 18C9.61, 18 11.83, 16.33 12.65, 14H17V18H21V14H23V10H12.65Z" class="i pk" transform="translate(69, 48) scale(0.65)"></path><text x="13" y="86" class="tf">title<tspan x="144" class="ty">varchar(30)</tspan></text></svg><svg width="171" height="100" x="383.33" y="-120" id="h475896179" class="t"><rect height="40" width="171" class="th"></rect><text x="13" y="25" class="tht">departments</text><rect height="60" width="171" class="t-bg" y="40"></rect><text x="13" y="61" class="tf pk">dept_no<tspan x="158" class="ty">varchar(4)</tspan></text><path d="M7,14A2,2 0 0,1 5,12A2,2 0 0,1 7,10A2,2 0 0,1 9,12A2,2 0 0,1 7,14M12.65,10C11.83,7.67 9.61,6 7, 6A6, 6 0 0, 0 1, 12A6, 6 0 0, 0 7, 18C9.61, 18 11.83, 16.33 12.65, 14H17V18H21V14H23V10H12.65Z" class="i pk" transform="translate(83, 48) scale(0.65)"></path><text x="13" y="86" class="tf">dept_name<tspan x="158" class="ty">varchar(30)</tspan></text></svg><svg width="169" height="225" x="387.14" y="5.71" id="h1639608377" class="t"><rect height="40" width="169" class="th"></rect><text x="13" y="25" class="tht">employees</text><rect height="185" width="169" class="t-bg" y="40"></rect><text x="13" y="61" class="tf pk">emp_no<tspan x="156" class="ty">int</tspan></text><path d="M7,14A2,2 0 0,1 5,12A2,2 0 0,1 7,10A2,2 0 0,1 9,12A2,2 0 0,1 7,14M12.65,10C11.83,7.67 9.61,6 7, 6A6, 6 0 0, 0 1, 12A6, 6 0 0, 0 7, 18C9.61, 18 11.83, 16.33 12.65, 14H17V18H21V14H23V10H12.65Z" class="i pk" transform="translate(123, 48) scale(0.65)"></path><text x="13" y="86" class="tf fk">emp_title_id<tspan x="156" class="ty">varchar(5)</tspan></text><text x="13" y="111" class="tf">birth_date<tspan x="156" class="ty">date</tspan></text><text x="13" y="136" class="tf">first_name<tspan x="156" class="ty">varchar(30)</tspan></text><text x="13" y="161" class="tf">last_name<tspan x="156" class="ty">varchar(30)</tspan></text><text x="13" y="186" class="tf">sex<tspan x="156" class="ty">varchar(1)</tspan></text><text x="13" y="211" class="tf">hire_date<tspan x="156" class="ty">date</tspan></text></svg><svg width="125" height="100" x="653.33" y="56.67" id="h2472833127" class="t"><rect height="40" width="125" class="th"></rect><text x="13" y="25" class="tht">salaries</text><rect height="60" width="125" class="t-bg" y="40"></rect><text x="13" y="61" class="tf pk">emp_no<tspan x="112" class="ty">int</tspan></text><path d="M7,14A2,2 0 0,1 5,12A2,2 0 0,1 7,10A2,2 0 0,1 9,12A2,2 0 0,1 7,14M12.65,10C11.83,7.67 9.61,6 7, 6A6, 6 0 0, 0 1, 12A6, 6 0 0, 0 7, 18C9.61, 18 11.83, 16.33 12.65, 14H17V18H21V14H23V10H12.65Z" class="i pk" transform="translate(79, 48) scale(0.65)"></path><text x="13" y="86" class="tf">salary<tspan x="112" class="ty">int</tspan></text></svg><svg width="166" height="100" x="120" y="-83.33" id="h1090417462" class="t"><rect height="40" width="166" class="th"></rect><text x="13" y="25" class="tht">dept_emp</text><rect height="60" width="166" class="t-bg" y="40"></rect><text x="13" y="61" class="tf pk">emp_no<tspan x="153" class="ty">int</tspan></text><path d="M7,14A2,2 0 0,1 5,12A2,2 0 0,1 7,10A2,2 0 0,1 9,12A2,2 0 0,1 7,14M12.65,10C11.83,7.67 9.61,6 7, 6A6, 6 0 0, 0 1, 12A6, 6 0 0, 0 7, 18C9.61, 18 11.83, 16.33 12.65, 14H17V18H21V14H23V10H12.65Z" class="i pk" transform="translate(120, 48) scale(0.65)"></path><text x="13" y="86" class="tf pk">dept_no<tspan x="153" class="ty">varchar(4)</tspan></text><path d="M7,14A2,2 0 0,1 5,12A2,2 0 0,1 7,10A2,2 0 0,1 9,12A2,2 0 0,1 7,14M12.65,10C11.83,7.67 9.61,6 7, 6A6, 6 0 0, 0 1, 12A6, 6 0 0, 0 7, 18C9.61, 18 11.83, 16.33 12.65, 14H17V18H21V14H23V10H12.65Z" class="i pk" transform="translate(78, 73) scale(0.65)"></path></svg><svg width="166" height="100" x="653.33" y="-81.67" id="h1676682957" class="t"><rect height="40" width="166" class="th"></rect><text x="13" y="25" class="tht">dept_manager</text><rect height="60" width="166" class="t-bg" y="40"></rect><text x="13" y="61" class="tf pk">dept_no<tspan x="153" class="ty">varchar(4)</tspan></text><path d="M7,14A2,2 0 0,1 5,12A2,2 0 0,1 7,10A2,2 0 0,1 9,12A2,2 0 0,1 7,14M12.65,10C11.83,7.67 9.61,6 7, 6A6, 6 0 0, 0 1, 12A6, 6 0 0, 0 7, 18C9.61, 18 11.83, 16.33 12.65, 14H17V18H21V14H23V10H12.65Z" class="i pk" transform="translate(78, 48) scale(0.65)"></path><text x="13" y="86" class="tf pk">emp_no<tspan x="153" class="ty">int</tspan></text><path d="M7,14A2,2 0 0,1 5,12A2,2 0 0,1 7,10A2,2 0 0,1 9,12A2,2 0 0,1 7,14M12.65,10C11.83,7.67 9.61,6 7, 6A6, 6 0 0, 0 1, 12A6, 6 0 0, 0 7, 18C9.61, 18 11.83, 16.33 12.65, 14H17V18H21V14H23V10H12.65Z" class="i pk" transform="translate(120, 73) scale(0.65)"></path></svg></g></g><text class="qdbd-link" x="10" y="20">www.quickdatabasediagrams.com</text></svg>